<mxfile host="app.diagrams.net" agent="Mozilla/5.0 (Windows NT 10.0; Win64; x64) AppleWebKit/537.36 (KHTML, like Gecko) Chrome/128.0.0.0 Safari/537.36" version="24.7.7">
  <diagram name="Page-1" id="aMH86atn_zBFC1dDe0J-">
    <mxGraphModel dx="1363" dy="883" grid="1" gridSize="10" guides="1" tooltips="1" connect="1" arrows="1" fold="1" page="1" pageScale="1" pageWidth="850" pageHeight="1100" math="0" shadow="0">
      <root>
        <mxCell id="0" />
        <mxCell id="1" parent="0" />
        <mxCell id="AhclVzLR4nrx0OqxUoMz-1" value="Begin" style="strokeWidth=2;html=1;shape=mxgraph.flowchart.terminator;whiteSpace=wrap;" vertex="1" parent="1">
          <mxGeometry x="420" y="120" width="80" height="40" as="geometry" />
        </mxCell>
        <mxCell id="AhclVzLR4nrx0OqxUoMz-2" value="Read Sensor" style="shape=parallelogram;html=1;strokeWidth=2;perimeter=parallelogramPerimeter;whiteSpace=wrap;rounded=1;arcSize=12;size=0.23;" vertex="1" parent="1">
          <mxGeometry x="385" y="190" width="150" height="40" as="geometry" />
        </mxCell>
        <mxCell id="AhclVzLR4nrx0OqxUoMz-3" value="sensor &amp;lt; sensor_threshold" style="strokeWidth=2;html=1;shape=mxgraph.flowchart.decision;whiteSpace=wrap;" vertex="1" parent="1">
          <mxGeometry x="360" y="260" width="200" height="100" as="geometry" />
        </mxCell>
        <mxCell id="AhclVzLR4nrx0OqxUoMz-4" value="Turn water on" style="rounded=1;whiteSpace=wrap;html=1;absoluteArcSize=1;arcSize=14;strokeWidth=2;" vertex="1" parent="1">
          <mxGeometry x="410" y="712" width="100" height="40" as="geometry" />
        </mxCell>
        <mxCell id="AhclVzLR4nrx0OqxUoMz-5" value="runtime expired?" style="strokeWidth=2;html=1;shape=mxgraph.flowchart.decision;whiteSpace=wrap;" vertex="1" parent="1">
          <mxGeometry x="360" y="792" width="200" height="100" as="geometry" />
        </mxCell>
        <mxCell id="AhclVzLR4nrx0OqxUoMz-6" value="Turn water off" style="rounded=1;whiteSpace=wrap;html=1;absoluteArcSize=1;arcSize=14;strokeWidth=2;" vertex="1" parent="1">
          <mxGeometry x="190" y="822" width="100" height="40" as="geometry" />
        </mxCell>
        <mxCell id="AhclVzLR4nrx0OqxUoMz-7" value="forecast of rain &amp;gt; 75%" style="strokeWidth=2;html=1;shape=mxgraph.flowchart.decision;whiteSpace=wrap;" vertex="1" parent="1">
          <mxGeometry x="360" y="562" width="200" height="100" as="geometry" />
        </mxCell>
        <mxCell id="AhclVzLR4nrx0OqxUoMz-8" value="" style="endArrow=classic;html=1;rounded=0;exitX=0.5;exitY=1;exitDx=0;exitDy=0;exitPerimeter=0;" edge="1" parent="1" source="AhclVzLR4nrx0OqxUoMz-3">
          <mxGeometry width="50" height="50" relative="1" as="geometry">
            <mxPoint x="400" y="510" as="sourcePoint" />
            <mxPoint x="460" y="410" as="targetPoint" />
          </mxGeometry>
        </mxCell>
        <mxCell id="AhclVzLR4nrx0OqxUoMz-9" value="Dry" style="edgeLabel;html=1;align=center;verticalAlign=middle;resizable=0;points=[];" vertex="1" connectable="0" parent="AhclVzLR4nrx0OqxUoMz-8">
          <mxGeometry x="-0.2667" relative="1" as="geometry">
            <mxPoint as="offset" />
          </mxGeometry>
        </mxCell>
        <mxCell id="AhclVzLR4nrx0OqxUoMz-12" value="True (Soil is dry)" style="edgeLabel;html=1;align=center;verticalAlign=middle;resizable=0;points=[];" vertex="1" connectable="0" parent="AhclVzLR4nrx0OqxUoMz-8">
          <mxGeometry x="-0.2276" y="3" relative="1" as="geometry">
            <mxPoint as="offset" />
          </mxGeometry>
        </mxCell>
        <mxCell id="AhclVzLR4nrx0OqxUoMz-10" value="" style="endArrow=classic;html=1;rounded=0;exitX=0;exitY=0.5;exitDx=0;exitDy=0;exitPerimeter=0;entryX=0.5;entryY=0;entryDx=0;entryDy=0;" edge="1" parent="1" source="AhclVzLR4nrx0OqxUoMz-7" target="AhclVzLR4nrx0OqxUoMz-6">
          <mxGeometry width="50" height="50" relative="1" as="geometry">
            <mxPoint x="400" y="672" as="sourcePoint" />
            <mxPoint x="450" y="622" as="targetPoint" />
            <Array as="points">
              <mxPoint x="240" y="612" />
            </Array>
          </mxGeometry>
        </mxCell>
        <mxCell id="AhclVzLR4nrx0OqxUoMz-11" value="True (Its going to rain)" style="edgeLabel;html=1;align=center;verticalAlign=middle;resizable=0;points=[];" vertex="1" connectable="0" parent="AhclVzLR4nrx0OqxUoMz-10">
          <mxGeometry x="-0.7937" relative="1" as="geometry">
            <mxPoint x="-27" as="offset" />
          </mxGeometry>
        </mxCell>
        <mxCell id="AhclVzLR4nrx0OqxUoMz-13" value="" style="endArrow=classic;html=1;rounded=0;exitX=0;exitY=0.5;exitDx=0;exitDy=0;exitPerimeter=0;" edge="1" parent="1" source="AhclVzLR4nrx0OqxUoMz-3">
          <mxGeometry width="50" height="50" relative="1" as="geometry">
            <mxPoint x="400" y="380" as="sourcePoint" />
            <mxPoint x="240" y="610" as="targetPoint" />
            <Array as="points">
              <mxPoint x="240" y="310" />
            </Array>
          </mxGeometry>
        </mxCell>
        <mxCell id="AhclVzLR4nrx0OqxUoMz-14" value="False (Soil is wet)" style="edgeLabel;html=1;align=center;verticalAlign=middle;resizable=0;points=[];" vertex="1" connectable="0" parent="AhclVzLR4nrx0OqxUoMz-13">
          <mxGeometry x="-0.6281" y="-1" relative="1" as="geometry">
            <mxPoint x="-12" y="1" as="offset" />
          </mxGeometry>
        </mxCell>
        <mxCell id="AhclVzLR4nrx0OqxUoMz-15" value="" style="endArrow=classic;html=1;rounded=0;exitX=0.5;exitY=1;exitDx=0;exitDy=0;exitPerimeter=0;entryX=0.5;entryY=0;entryDx=0;entryDy=0;" edge="1" parent="1" source="AhclVzLR4nrx0OqxUoMz-7" target="AhclVzLR4nrx0OqxUoMz-4">
          <mxGeometry width="50" height="50" relative="1" as="geometry">
            <mxPoint x="400" y="742" as="sourcePoint" />
            <mxPoint x="450" y="692" as="targetPoint" />
          </mxGeometry>
        </mxCell>
        <mxCell id="AhclVzLR4nrx0OqxUoMz-16" value="False (Its not going to rain)" style="edgeLabel;html=1;align=center;verticalAlign=middle;resizable=0;points=[];" vertex="1" connectable="0" parent="AhclVzLR4nrx0OqxUoMz-15">
          <mxGeometry x="-0.1366" y="1" relative="1" as="geometry">
            <mxPoint as="offset" />
          </mxGeometry>
        </mxCell>
        <mxCell id="AhclVzLR4nrx0OqxUoMz-17" value="" style="endArrow=classic;html=1;rounded=0;exitX=0.5;exitY=1;exitDx=0;exitDy=0;entryX=0.5;entryY=0;entryDx=0;entryDy=0;entryPerimeter=0;" edge="1" parent="1" source="AhclVzLR4nrx0OqxUoMz-4" target="AhclVzLR4nrx0OqxUoMz-5">
          <mxGeometry width="50" height="50" relative="1" as="geometry">
            <mxPoint x="400" y="742" as="sourcePoint" />
            <mxPoint x="450" y="692" as="targetPoint" />
          </mxGeometry>
        </mxCell>
        <mxCell id="AhclVzLR4nrx0OqxUoMz-18" value="" style="endArrow=classic;html=1;rounded=0;exitX=0;exitY=0.5;exitDx=0;exitDy=0;exitPerimeter=0;entryX=1;entryY=0.5;entryDx=0;entryDy=0;" edge="1" parent="1" source="AhclVzLR4nrx0OqxUoMz-5" target="AhclVzLR4nrx0OqxUoMz-6">
          <mxGeometry width="50" height="50" relative="1" as="geometry">
            <mxPoint x="400" y="742" as="sourcePoint" />
            <mxPoint x="450" y="692" as="targetPoint" />
          </mxGeometry>
        </mxCell>
        <mxCell id="AhclVzLR4nrx0OqxUoMz-19" value="True" style="edgeLabel;html=1;align=center;verticalAlign=middle;resizable=0;points=[];" vertex="1" connectable="0" parent="AhclVzLR4nrx0OqxUoMz-18">
          <mxGeometry x="-0.269" relative="1" as="geometry">
            <mxPoint as="offset" />
          </mxGeometry>
        </mxCell>
        <mxCell id="AhclVzLR4nrx0OqxUoMz-20" value="" style="endArrow=classic;html=1;rounded=0;exitX=0.5;exitY=1;exitDx=0;exitDy=0;exitPerimeter=0;" edge="1" parent="1" source="AhclVzLR4nrx0OqxUoMz-5">
          <mxGeometry width="50" height="50" relative="1" as="geometry">
            <mxPoint x="400" y="742" as="sourcePoint" />
            <mxPoint x="460" y="772" as="targetPoint" />
            <Array as="points">
              <mxPoint x="460" y="902" />
              <mxPoint x="600" y="902" />
              <mxPoint x="600" y="772" />
            </Array>
          </mxGeometry>
        </mxCell>
        <mxCell id="AhclVzLR4nrx0OqxUoMz-21" value="" style="endArrow=classic;html=1;rounded=0;exitX=0.5;exitY=1;exitDx=0;exitDy=0;" edge="1" parent="1" source="AhclVzLR4nrx0OqxUoMz-2">
          <mxGeometry width="50" height="50" relative="1" as="geometry">
            <mxPoint x="400" y="310" as="sourcePoint" />
            <mxPoint x="460" y="260" as="targetPoint" />
          </mxGeometry>
        </mxCell>
        <mxCell id="AhclVzLR4nrx0OqxUoMz-22" value="" style="endArrow=classic;html=1;rounded=0;exitX=0.5;exitY=1;exitDx=0;exitDy=0;exitPerimeter=0;" edge="1" parent="1" source="AhclVzLR4nrx0OqxUoMz-1">
          <mxGeometry width="50" height="50" relative="1" as="geometry">
            <mxPoint x="400" y="310" as="sourcePoint" />
            <mxPoint x="460" y="190" as="targetPoint" />
          </mxGeometry>
        </mxCell>
        <mxCell id="AhclVzLR4nrx0OqxUoMz-23" value="" style="endArrow=classic;html=1;rounded=0;exitX=0.5;exitY=1;exitDx=0;exitDy=0;" edge="1" parent="1" source="AhclVzLR4nrx0OqxUoMz-6">
          <mxGeometry width="50" height="50" relative="1" as="geometry">
            <mxPoint x="400" y="460" as="sourcePoint" />
            <mxPoint x="460" y="170" as="targetPoint" />
            <Array as="points">
              <mxPoint x="240" y="890" />
              <mxPoint x="160" y="890" />
              <mxPoint x="160" y="720" />
              <mxPoint x="160" y="170" />
            </Array>
          </mxGeometry>
        </mxCell>
        <mxCell id="AhclVzLR4nrx0OqxUoMz-24" value="Forecast &amp;lt; 24hr" style="strokeWidth=2;html=1;shape=mxgraph.flowchart.decision;whiteSpace=wrap;" vertex="1" parent="1">
          <mxGeometry x="360" y="410" width="200" height="100" as="geometry" />
        </mxCell>
        <mxCell id="AhclVzLR4nrx0OqxUoMz-25" value="Get Forecast" style="rounded=1;whiteSpace=wrap;html=1;absoluteArcSize=1;arcSize=14;strokeWidth=2;" vertex="1" parent="1">
          <mxGeometry x="640" y="440" width="100" height="40" as="geometry" />
        </mxCell>
        <mxCell id="AhclVzLR4nrx0OqxUoMz-26" value="" style="endArrow=classic;html=1;rounded=0;exitX=0.5;exitY=1;exitDx=0;exitDy=0;exitPerimeter=0;entryX=0.5;entryY=0;entryDx=0;entryDy=0;entryPerimeter=0;" edge="1" parent="1" source="AhclVzLR4nrx0OqxUoMz-24" target="AhclVzLR4nrx0OqxUoMz-7">
          <mxGeometry width="50" height="50" relative="1" as="geometry">
            <mxPoint x="400" y="630" as="sourcePoint" />
            <mxPoint x="460" y="550" as="targetPoint" />
          </mxGeometry>
        </mxCell>
        <mxCell id="AhclVzLR4nrx0OqxUoMz-27" value="True" style="edgeLabel;html=1;align=center;verticalAlign=middle;resizable=0;points=[];" vertex="1" connectable="0" parent="AhclVzLR4nrx0OqxUoMz-26">
          <mxGeometry x="-0.125" relative="1" as="geometry">
            <mxPoint y="12" as="offset" />
          </mxGeometry>
        </mxCell>
        <mxCell id="AhclVzLR4nrx0OqxUoMz-28" value="" style="endArrow=classic;html=1;rounded=0;exitX=0.5;exitY=1;exitDx=0;exitDy=0;" edge="1" parent="1" source="AhclVzLR4nrx0OqxUoMz-25">
          <mxGeometry width="50" height="50" relative="1" as="geometry">
            <mxPoint x="400" y="630" as="sourcePoint" />
            <mxPoint x="460" y="520" as="targetPoint" />
            <Array as="points">
              <mxPoint x="690" y="520" />
            </Array>
          </mxGeometry>
        </mxCell>
        <mxCell id="AhclVzLR4nrx0OqxUoMz-29" value="" style="endArrow=classic;html=1;rounded=0;exitX=1;exitY=0.5;exitDx=0;exitDy=0;exitPerimeter=0;entryX=0;entryY=0.5;entryDx=0;entryDy=0;" edge="1" parent="1" source="AhclVzLR4nrx0OqxUoMz-24" target="AhclVzLR4nrx0OqxUoMz-25">
          <mxGeometry width="50" height="50" relative="1" as="geometry">
            <mxPoint x="400" y="630" as="sourcePoint" />
            <mxPoint x="450" y="580" as="targetPoint" />
          </mxGeometry>
        </mxCell>
        <mxCell id="AhclVzLR4nrx0OqxUoMz-30" value="False" style="edgeLabel;html=1;align=center;verticalAlign=middle;resizable=0;points=[];" vertex="1" connectable="0" parent="AhclVzLR4nrx0OqxUoMz-29">
          <mxGeometry x="0.0625" y="2" relative="1" as="geometry">
            <mxPoint y="1" as="offset" />
          </mxGeometry>
        </mxCell>
      </root>
    </mxGraphModel>
  </diagram>
</mxfile>
